<svg width="182" height="219" viewBox="0 0 182 219" fill="none" xmlns="http://www.w3.org/2000/svg">
  <path
    d="M87.8486 216.35C87.1486 215.55 85.5486 214.85 84.1486 214.85C80.2486 214.85 74.9486 212.15 73.7486 209.45C70.8486 203.15 76.2486 196.75 85.1486 195.85C89.5486 195.45 90.3486 195.05 90.6486 193.15C91.0486 190.15 88.0486 189.45 82.7486 191.25C77.9486 192.95 76.8486 192.65 76.8486 189.75C76.8486 185.75 87.3486 183.35 91.6486 186.45C95.4486 189.15 95.9486 192.05 94.3486 202.15C93.4486 207.25 92.5486 212.85 92.2486 214.65C91.7486 218.05 89.8486 218.75 87.8486 216.35ZM89.1486 206.55C90.3486 201.55 89.5486 199.65 86.3486 200.35C84.9486 200.65 82.7486 201.05 81.3486 201.35C78.5486 201.95 76.5486 204.95 77.4486 207.25C78.1486 209.05 82.4486 210.85 85.8486 210.55C87.7486 210.35 88.4486 209.55 89.1486 206.55Z"
    fill="#101010" stroke="black" stroke-width="0.8" />
  <path
    d="M33.1484 215.75C20.8484 213.55 15.8484 206.55 18.8484 195.75C21.2484 187.25 29.3484 182.05 37.4484 183.85C45.7484 185.75 43.4484 189.85 34.1484 189.85C27.0484 189.85 24.8484 192.15 24.8484 199.65C24.8484 204.25 25.2484 205.45 27.7484 207.95C31.1484 211.35 36.9484 211.85 41.9484 209.25C44.7484 207.85 45.1484 207.85 46.8484 209.35C48.4484 210.85 48.6484 210.75 49.2484 208.65C49.5484 207.35 49.8484 201.35 49.8484 195.25C49.8484 183.55 50.8484 180.85 54.4484 182.25C55.8484 182.75 55.9484 183.95 55.3484 190.25C54.5484 199.15 55.5484 200.25 60.4484 195.95C66.2484 190.85 67.5484 191.95 69.6484 204.15C70.9484 212.05 71.0484 213.95 69.9484 215.25C66.7484 219.15 63.8484 214.65 63.8484 205.75C63.8484 203.15 63.4484 200.75 62.9484 200.45C61.9484 199.75 58.2484 203.95 55.6484 208.75C54.4484 210.95 53.2484 211.85 51.3484 211.85C49.9484 211.85 47.6484 212.55 46.3484 213.45C42.8484 215.75 37.9484 216.55 33.1484 215.75Z"
    fill="#101010" stroke="black" stroke-width="0.8" />
  <path
    d="M101.648 216.15C100.648 215.85 99.8483 215.65 99.7483 215.55C99.5483 214.75 97.7483 193.05 97.8483 191.85C97.8483 191.05 98.1483 187.05 98.3483 182.95C98.7483 175.15 100.348 172.05 103.348 173.25C104.848 173.75 104.948 174.85 104.348 180.85L103.648 187.75L106.548 188.35C114.348 189.95 116.848 191.15 119.748 194.35C123.748 198.95 123.848 203.45 120.248 207.85C116.148 212.65 105.948 217.25 101.648 216.15ZM114.548 206.65C115.748 205.45 117.048 203.75 117.348 202.75C118.648 198.65 112.948 193.85 106.748 193.85H103.548L104.248 200.95C104.548 204.85 105.148 208.55 105.448 209.05C106.448 210.55 111.948 209.05 114.548 206.65Z"
    fill="#101010" stroke="black" stroke-width="0.8" />
  <path
    d="M148.448 214.25C148.148 213.35 147.848 210.35 147.848 207.55C147.848 202.55 146.648 193.75 145.348 189.25C144.448 186.35 147.348 183.55 149.848 184.85C150.848 185.35 152.048 186.75 152.348 187.85C153.148 190.45 154.448 190.35 157.948 187.35C160.448 185.25 161.248 185.05 163.348 186.05C166.348 187.35 165.848 188.35 159.648 193.75C154.448 198.45 152.548 204.05 154.948 208.45C156.648 211.75 154.748 215.85 151.448 215.85C150.148 215.85 148.748 215.15 148.448 214.25Z"
    fill="#101010" stroke="black" stroke-width="0.8" />
  <path
    d="M131.248 206.35C126.048 202.75 125.748 195.05 130.448 187.95C134.348 181.95 138.748 182.85 142.748 190.55C145.048 195.15 143.848 200.85 139.548 205.65C137.148 208.15 134.148 208.45 131.248 206.35ZM138.648 197.35C139.048 193.25 136.548 189.95 134.148 191.45C129.348 194.35 130.548 201.25 135.748 200.65C137.848 200.45 138.448 199.75 138.648 197.35Z"
    fill="#101010" stroke="black" stroke-width="0.8" />
  <path
    d="M89.0039 216C89.0039 214.3 88.3039 214 84.5039 214C82.0039 214 80.0039 213.6 80.0039 213C80.0039 212.5 79.0039 212 77.7039 212C76.0039 212 75.1039 211.1 74.2039 208.7C72.5039 204.1 72.7039 203.3 75.5039 200.5C77.1039 198.8 79.0039 198 81.5039 198C86.0039 198 86.1039 200.2 81.6039 201.8C75.3039 204.1 76.9039 209.6 84.0039 210.2C86.8039 210.4 87.7039 210.1 88.5039 208.3C89.0039 207 90.0039 206 90.6039 206C91.9039 206 93.3039 214.2 92.4039 216.5C91.5039 218.7 89.0039 218.3 89.0039 216Z"
    fill="#191919" />
  <path
    d="M34.8037 216.3C33.8037 216.1 33.0037 215.4 33.0037 214.9C33.0037 214.4 32.1037 214 31.1037 214C28.1037 214 26.0037 212.9 26.0037 211.4C26.0037 210.6 25.3037 210 24.5037 210C23.7037 210 23.0037 209.6 23.0037 209.1C23.0037 208.6 22.2037 208.3 21.3037 208.4C20.3037 208.4 19.2037 207.4 18.6037 205.8C17.5037 202.6 17.6037 202.4 21.5037 201.6C24.3037 201 24.7037 201.2 25.9037 204.5C26.8037 207.1 28.2037 208.6 30.8037 209.8C32.9037 210.7 34.7037 211.8 34.8037 212.3C35.4037 213.6 40.0037 213.1 40.0037 211.7C40.0037 210.9 41.1038 209.7 42.5037 209C44.8037 207.8 45.2037 207.9 47.0037 209.8C49.0037 211.9 49.0037 211.9 46.3037 213.9C44.9037 215.1 43.0037 216 42.1038 216C41.2037 216 39.6038 216.2 38.5037 216.4C37.4037 216.6 35.7037 216.6 34.8037 216.3Z"
    fill="#191919" />
  <path
    d="M65.7039 216.4C65.3039 216 65.0039 214.8 65.0039 213.8C65.0039 212.5 65.8039 212 68.1039 212C70.7039 212 71.1039 212.3 70.8039 214.3C70.5039 216.5 67.2039 217.9 65.7039 216.4Z"
    fill="#191919" />
  <path
    d="M101.304 216.3C98.7037 215.3 100.004 213 103.104 213C105.504 213 106.104 213.4 105.804 214.7C105.504 216.5 103.404 217.3 101.304 216.3Z"
    fill="#191919" />
  <path
    d="M108.004 214.4C108.004 213.6 106.704 212.7 105.104 212.4C102.604 211.9 102.204 211.3 101.604 207.3C100.704 200.5 100.804 199 102.504 199C103.404 199 104.104 200.4 104.504 202.8C105.904 211 106.204 211.2 112.204 208.2L115.804 206.3L116.304 208.9C116.804 211.7 115.404 213.2 110.804 214.9C108.504 215.7 108.004 215.6 108.004 214.4Z"
    fill="#191919" />
  <path
    d="M148.704 215.3C147.404 214.1 148.004 211 149.504 211C150.504 211 151.004 209.9 151.004 207.5C151.004 203.8 153.304 202.5 154.304 205.8C154.504 206.7 155.104 208.3 155.504 209.3C156.004 210.6 155.704 211 154.104 211C152.504 211 152.004 211.6 152.004 213.5C152.004 215.9 150.204 216.9 148.704 215.3Z"
    fill="#191919" />
  <path
    d="M55.0039 204.5C55.0039 202.1 54.5039 201 53.5039 201C52.5039 201 52.0039 199.9 52.0039 197.5C52.0039 193.3 54.4039 192.7 55.4039 196.6C55.9039 198.3 56.6039 199 57.5039 198.6C58.4039 198.3 59.0039 198.7 59.0039 199.5C59.0039 200.3 59.5039 201 60.0039 201C60.6039 201 60.0039 202.6 58.8039 204.5C55.9039 208.9 55.0039 208.9 55.0039 204.5Z"
    fill="#191919" />
  <path
    d="M91.4037 199.3C91.8037 196.1 92.5037 193.4 93.0037 193.2C93.6037 193 94.0037 192.1 94.1037 191.2C94.1037 189.9 94.4037 190 95.2037 191.6C96.6037 194.7 94.4037 205 92.3037 205C91.0037 205 90.8037 204.1 91.4037 199.3Z"
    fill="#191919" />
  <path
    d="M117.404 203.1C117.704 202.6 117.504 200.9 116.904 199.2C116.304 197.5 116.004 194.9 116.204 193.4L116.504 190.6L119.804 193.9C122.904 197 124.104 201 122.004 201C121.504 201 121.004 201.7 121.004 202.5C121.004 203.3 120.104 204 118.904 204C117.804 204 117.104 203.6 117.404 203.1Z"
    fill="#191919" />
  <path
    d="M147.604 201.8C146.604 198 146.904 197 149.004 197C150.604 197 151.004 197.7 151.004 200.5C151.004 204.5 148.604 205.4 147.604 201.8Z"
    fill="#191919" />
  <path
    d="M152.004 198.5C152.004 195.3 152.304 195 154.904 195C157.504 195 157.804 194.6 158.304 190.9C159.004 185.4 161.104 183.9 164.504 186.4C166.304 187.7 166.104 188.1 160.704 193.3C157.604 196.3 155.004 199.5 155.004 200.4C155.004 201.3 154.304 202 153.504 202C152.504 202 152.004 200.9 152.004 198.5Z"
    fill="#191919" />
  <path
    d="M22.0039 196.1C22.0039 195 21.4039 194 20.8039 193.7C19.9039 193.4 20.1039 192.5 21.6039 190.4C23.3039 188 24.3039 187.6 27.1039 187.8C29.0039 188 30.6039 188.3 30.8039 188.5C31.0039 188.6 29.7039 190.1 28.0039 191.8C26.4039 193.5 25.0039 195.6 25.0039 196.4C25.0039 197.3 24.3039 198 23.5039 198C22.7039 198 22.0039 197.1 22.0039 196.1Z"
    fill="#191919" />
  <path
    d="M63.2037 195.3C63.4037 194.3 64.4037 193.5 65.5037 193.5C66.6037 193.5 67.6037 194.3 67.8037 195.3C68.1037 196.6 67.5037 197 65.5037 197C63.5037 197 62.9037 196.6 63.2037 195.3Z"
    fill="#191919" />
  <path
    d="M97.6037 194.5C96.8037 191.5 97.5037 190 99.6037 190C100.504 190 101.004 188.9 101.004 187C101.004 185 101.504 184 102.504 184C103.304 184 104.004 184.7 104.004 185.5C104.004 186.3 104.904 187.5 106.004 188.2C108.904 190.1 108.404 191 104.504 191C101.304 191 101.004 191.2 101.004 194C101.004 197.7 98.5037 198.1 97.6037 194.5Z"
    fill="#191919" />
  <path
    d="M127.004 195.4C127.004 193.3 128.804 190 130.004 190C130.604 190 131.004 191.6 131.004 193.5C131.004 196.3 130.604 197 129.004 197C127.904 197 127.004 196.3 127.004 195.4Z"
    fill="#191919" />
  <path
    d="M78.3038 192.1C75.7038 190.4 76.2038 188.1 79.5038 186.6C83.3038 184.8 86.0038 184.5 86.0038 186C86.0038 186.6 86.9038 187 88.0038 187C89.4038 187 90.0038 187.7 90.0038 189.1C90.0038 190.2 89.6038 190.9 89.1038 190.6C88.6038 190.3 86.2038 190.6 83.7038 191.4C81.2038 192.1 78.8038 192.5 78.3038 192.1Z"
    fill="#191919" />
  <path
    d="M139.004 191.6C139.004 190.8 138.304 190 137.504 189.6C135.804 189 135.404 184 137.004 184C138.504 184 142.704 188.7 143.304 191C143.704 192.6 143.304 193 141.404 193C140.004 193 139.004 192.4 139.004 191.6Z"
    fill="#191919" />
  <path
    d="M145.004 188.1C145.004 185.4 147.804 183.4 149.804 184.6C152.004 186 152.504 188 150.604 188C149.704 188 149.004 188.5 149.004 189C149.004 189.6 148.104 190 147.004 190C145.704 190 145.004 189.3 145.004 188.1Z"
    fill="#191919" />
  <path
    d="M33.3035 187.3C28.5035 186.8 27.4035 184.6 31.4035 183.6C35.8035 182.5 43.0035 184.7 43.0035 187.1C43.0035 188 41.5035 188 33.3035 187.3Z"
    fill="#191919" />
  <path
    d="M52.0039 184C52.0039 182.7 52.7039 182 54.0039 182C55.3039 182 56.0039 182.7 56.0039 184C56.0039 185.3 55.3039 186 54.0039 186C52.7039 186 52.0039 185.3 52.0039 184Z"
    fill="#191919" />
  <path
    d="M98.5036 182C97.6036 180.5 99.1036 176 100.604 176C101.504 176 102.004 177.2 102.004 179.5C102.004 182.9 100.004 184.4 98.5036 182Z"
    fill="#191919" />
  <circle cx="79" cy="88" r="59" fill="#2A5FF9" />
  <circle cx="114.5" cy="61.5" r="37.5" fill="#E1B61A" fill-opacity="0.9" />
  <circle opacity="0.83" cx="63" cy="71" r="47" fill="#5B3DD2" />
  <circle cx="107.5" cy="109.5" r="34.5" fill="#DA334D" fill-opacity="0.83" />
  <path fill-rule="evenodd" clip-rule="evenodd"
    d="M89.1844 105.282C97.1764 103.257 105.851 103.918 110.762 105.289C106.35 110.36 101.605 115.458 96.9152 120.292C94.5927 118.679 90.3483 113.901 89.1844 105.282ZM88.2109 105.544C83.42 106.903 78.8073 109.421 75.1622 113.697C75.4195 116.543 77.1617 120.278 79.2892 123.837C81.2434 127.107 83.4795 130.159 85.051 132.12C88.5769 128.714 92.368 124.96 96.2097 121.017C93.6258 119.154 89.411 114.174 88.2109 105.544ZM97.0337 121.604C93.1477 125.595 89.3121 129.394 85.7477 132.837C89.1423 135.14 96.8175 139.28 103.231 140.914C107.058 137.634 109.424 133.219 110.791 128.503C107.986 128.23 105.119 127.021 102.675 125.628C100.285 124.266 98.2597 122.707 97.0337 121.604ZM111.06 127.523C111.432 126.088 111.715 124.63 111.924 123.174C112.848 116.707 112.276 110.318 111.379 106.103C107.024 111.102 102.351 116.122 97.7312 120.887C98.9088 121.942 100.864 123.445 103.17 124.759C105.611 126.15 108.404 127.304 111.06 127.523ZM78.4309 124.35C80.4357 127.704 82.7293 130.828 84.3281 132.817C81.7968 135.253 79.4129 137.499 77.2585 139.495C74.7762 137.677 71.7541 134.297 70.542 129.923C69.3719 125.699 69.8706 120.487 74.3 114.759C74.8282 117.677 76.5188 121.151 78.4309 124.35ZM69.5783 130.19C70.8385 134.738 73.9236 138.242 76.5112 140.185C73.6033 142.867 71.1372 145.073 69.3194 146.654L69.9756 147.408C71.8372 145.79 74.3709 143.522 77.3577 140.765C79.1973 143.002 82.4532 145.602 86.6899 146.654C91.2297 147.781 96.8398 147.114 102.952 142.428C103.132 142.29 103.31 142.149 103.484 142.006L103.533 142.018L103.548 141.954C109.279 137.237 111.93 130.194 112.914 123.315C113.911 116.337 113.203 109.456 112.194 105.164L112.198 105.159L112.2 105.157L112.2 105.156L112.201 105.156L112.201 105.156L112.201 105.156L112.201 105.156C112.201 105.155 112.161 104.6 111.659 104.51C106.53 102.915 96.7752 102.097 88.0122 104.561C82.9833 105.975 78.1011 108.635 74.2646 113.21C68.9678 119.525 68.2516 125.401 69.5783 130.19ZM86.9308 145.683C91.1365 146.727 96.4099 146.153 102.268 141.692C95.754 139.879 88.2617 135.785 85.0125 133.546C82.5398 135.926 80.2079 138.124 78.0931 140.085C79.8123 142.194 82.9084 144.685 86.9308 145.683Z"
    fill="#E4E353" />
  <path
    d="M110.762 105.289L110.951 105.453C111.007 105.388 111.026 105.299 111.002 105.217C110.977 105.135 110.912 105.071 110.829 105.048L110.762 105.289ZM89.1844 105.282L89.123 105.04C88.9998 105.071 88.9197 105.19 88.9367 105.316L89.1844 105.282ZM96.9152 120.292L96.7726 120.497C96.8731 120.567 97.0094 120.553 97.0946 120.466L96.9152 120.292ZM88.2109 105.544L88.4585 105.509C88.4485 105.438 88.408 105.374 88.3475 105.334C88.2869 105.295 88.2122 105.283 88.1426 105.303L88.2109 105.544ZM75.1622 113.697L74.972 113.535C74.9284 113.586 74.9072 113.652 74.9132 113.719L75.1622 113.697ZM79.2892 123.837L79.5038 123.709L79.2892 123.837ZM85.051 132.12L84.8559 132.276C84.8999 132.331 84.965 132.365 85.0351 132.369C85.1053 132.374 85.1741 132.349 85.2247 132.3L85.051 132.12ZM96.2097 121.017L96.3887 121.192C96.4395 121.14 96.465 121.068 96.4587 120.995C96.4524 120.923 96.4149 120.857 96.3559 120.814L96.2097 121.017ZM85.7477 132.837L85.574 132.657C85.5198 132.71 85.4921 132.784 85.4986 132.859C85.5051 132.934 85.545 133.002 85.6074 133.044L85.7477 132.837ZM97.0337 121.604L97.2009 121.418C97.1011 121.329 96.9482 121.334 96.8546 121.43L97.0337 121.604ZM103.231 140.914L103.17 141.157C103.248 141.177 103.332 141.157 103.394 141.104L103.231 140.914ZM110.791 128.503L111.031 128.572C111.052 128.501 111.04 128.424 110.998 128.362C110.956 128.301 110.89 128.261 110.816 128.254L110.791 128.503ZM102.675 125.628L102.551 125.845L102.675 125.628ZM111.924 123.174L111.676 123.138L111.924 123.174ZM111.06 127.523L111.04 127.772C111.161 127.782 111.272 127.703 111.302 127.586L111.06 127.523ZM111.379 106.103L111.623 106.051C111.604 105.958 111.533 105.885 111.442 105.861C111.35 105.837 111.253 105.867 111.19 105.939L111.379 106.103ZM97.7312 120.887L97.5517 120.713C97.5043 120.761 97.4789 120.827 97.4813 120.895C97.4837 120.963 97.5137 121.027 97.5643 121.073L97.7312 120.887ZM103.17 124.759L103.294 124.542L103.17 124.759ZM84.3281 132.817L84.5015 132.997C84.5948 132.907 84.6041 132.761 84.523 132.66L84.3281 132.817ZM78.4309 124.35L78.2163 124.478L78.4309 124.35ZM77.2585 139.495L77.1108 139.696C77.2074 139.767 77.3406 139.759 77.4284 139.678L77.2585 139.495ZM70.542 129.923L70.3011 129.989L70.542 129.923ZM74.3 114.759L74.546 114.715C74.5284 114.617 74.4553 114.54 74.3593 114.516C74.2634 114.493 74.1626 114.528 74.1022 114.606L74.3 114.759ZM76.5112 140.185L76.6807 140.369C76.7352 140.319 76.7646 140.247 76.7609 140.173C76.7571 140.099 76.7206 140.03 76.6613 139.985L76.5112 140.185ZM69.5783 130.19L69.8192 130.123H69.8192L69.5783 130.19ZM69.3194 146.654L69.1554 146.465C69.0512 146.556 69.0402 146.714 69.1308 146.818L69.3194 146.654ZM69.9756 147.408L69.787 147.572C69.8305 147.623 69.8921 147.653 69.9582 147.658C70.0244 147.662 70.0896 147.641 70.1397 147.597L69.9756 147.408ZM77.3577 140.765L77.5508 140.606C77.5071 140.553 77.4435 140.52 77.3749 140.515C77.3062 140.511 77.2387 140.535 77.1882 140.581L77.3577 140.765ZM86.6899 146.654L86.7501 146.411L86.6899 146.654ZM102.952 142.428L103.104 142.626L102.952 142.428ZM103.484 142.006L103.542 141.763C103.466 141.745 103.387 141.764 103.326 141.813L103.484 142.006ZM103.533 142.018L103.476 142.261C103.54 142.276 103.608 142.265 103.665 142.23C103.721 142.196 103.761 142.14 103.776 142.075L103.533 142.018ZM103.548 141.954L103.389 141.761C103.347 141.796 103.317 141.844 103.305 141.897L103.548 141.954ZM112.914 123.315L113.161 123.35L112.914 123.315ZM112.194 105.164L112.004 105.001C111.952 105.061 111.932 105.143 111.95 105.221L112.194 105.164ZM112.198 105.159L112.009 104.995L112.009 104.995L112.198 105.159ZM112.2 105.157L112.012 104.992L112.011 104.993L112.2 105.157ZM112.2 105.156L112.389 105.321L112.391 105.319L112.2 105.156ZM112.201 105.156L112.011 104.993L112.01 104.994L112.201 105.156ZM112.201 105.156L112.012 104.992L112.011 104.993L112.201 105.156ZM112.201 105.156L112.012 104.992L112.012 104.992L112.201 105.156ZM112.201 105.156L112.39 105.32L112.39 105.319L112.201 105.156ZM111.659 104.51L111.584 104.749C111.594 104.752 111.605 104.755 111.615 104.757L111.659 104.51ZM88.0122 104.561L88.0799 104.801L88.0122 104.561ZM74.2646 113.21L74.4561 113.37L74.2646 113.21ZM102.268 141.692L102.419 141.891C102.495 141.833 102.531 141.738 102.513 141.645C102.495 141.552 102.426 141.477 102.335 141.451L102.268 141.692ZM86.9308 145.683L86.8706 145.926L86.9308 145.683ZM85.0125 133.546L85.1544 133.34C85.0566 133.273 84.9248 133.284 84.8392 133.366L85.0125 133.546ZM78.0931 140.085L77.9232 139.901C77.8265 139.991 77.816 140.14 77.8994 140.243L78.0931 140.085ZM110.829 105.048C105.879 103.666 97.1605 103.003 89.123 105.04L89.2458 105.525C97.1922 103.511 105.822 104.169 110.695 105.529L110.829 105.048ZM97.0946 120.466C101.787 115.63 106.535 110.528 110.951 105.453L110.574 105.125C106.165 110.192 101.423 115.287 96.7358 120.117L97.0946 120.466ZM88.9367 105.316C90.1097 114.002 94.391 118.843 96.7726 120.497L97.0578 120.086C94.7943 118.514 90.5869 113.8 89.4322 105.249L88.9367 105.316ZM88.1426 105.303C83.3138 106.673 78.6549 109.215 74.972 113.535L75.3525 113.859C78.9597 109.628 83.5263 107.132 88.2791 105.784L88.1426 105.303ZM74.9132 113.719C75.176 116.627 76.9457 120.403 79.0746 123.965L79.5038 123.709C77.3777 120.152 75.6629 116.46 75.4112 113.674L74.9132 113.719ZM79.0746 123.965C81.0359 127.247 83.2789 130.308 84.8559 132.276L85.2461 131.964C83.6801 130.01 81.451 126.967 79.5038 123.709L79.0746 123.965ZM85.2247 132.3C88.7521 128.893 92.5451 125.136 96.3887 121.192L96.0306 120.843C92.1909 124.783 88.4016 128.536 84.8773 131.94L85.2247 132.3ZM96.3559 120.814C93.8284 118.992 89.6494 114.073 88.4585 105.509L87.9632 105.578C89.1726 114.275 93.4231 119.316 96.0634 121.22L96.3559 120.814ZM85.9214 133.017C89.4874 129.573 93.3248 125.771 97.2128 121.779L96.8546 121.43C92.9706 125.418 89.1368 129.216 85.574 132.657L85.9214 133.017ZM103.293 140.672C96.916 139.047 89.2676 134.923 85.888 132.63L85.6074 133.044C89.017 135.357 96.7189 139.513 103.17 141.157L103.293 140.672ZM110.551 128.433C109.194 133.117 106.849 137.485 103.069 140.724L103.394 141.104C107.268 137.784 109.655 133.322 111.031 128.572L110.551 128.433ZM110.816 128.254C108.06 127.986 105.229 126.795 102.799 125.411L102.551 125.845C105.01 127.246 107.912 128.474 110.767 128.752L110.816 128.254ZM102.799 125.411C100.426 124.059 98.4147 122.51 97.2009 121.418L96.8665 121.79C98.1048 122.904 100.145 124.474 102.551 125.845L102.799 125.411ZM111.676 123.138C111.469 124.587 111.187 126.035 110.818 127.46L111.302 127.586C111.676 126.141 111.962 124.674 112.171 123.209L111.676 123.138ZM111.134 106.155C112.026 110.346 112.596 116.706 111.676 123.138L112.171 123.209C113.1 116.709 112.526 110.29 111.623 106.051L111.134 106.155ZM97.9106 121.061C102.533 116.294 107.209 111.27 111.567 106.267L111.19 105.939C106.839 110.934 102.169 115.95 97.5517 120.713L97.9106 121.061ZM97.5643 121.073C98.7541 122.139 100.723 123.653 103.046 124.976L103.294 124.542C101.004 123.237 99.0635 121.745 97.898 120.7L97.5643 121.073ZM103.046 124.976C105.502 126.376 108.331 127.549 111.04 127.772L111.081 127.274C108.476 127.059 105.721 125.925 103.294 124.542L103.046 124.976ZM84.523 132.66C82.9298 130.679 80.6432 127.564 78.6455 124.222L78.2163 124.478C80.2282 127.844 82.5289 130.978 84.1333 132.974L84.523 132.66ZM77.4284 139.678C79.584 137.682 81.969 135.434 84.5015 132.997L84.1548 132.637C81.6246 135.072 79.2419 137.317 77.0887 139.311L77.4284 139.678ZM70.3011 129.989C71.5317 134.431 74.5952 137.854 77.1108 139.696L77.4062 139.293C74.9571 137.499 71.9764 134.163 70.7829 129.856L70.3011 129.989ZM74.1022 114.606C69.6273 120.393 69.1087 125.686 70.3011 129.989L70.7829 129.856C69.635 125.713 70.1138 120.581 74.4978 114.912L74.1022 114.606ZM78.6455 124.222C76.7366 121.028 75.0658 117.586 74.546 114.715L74.054 114.804C74.5906 117.767 76.301 121.274 78.2163 124.478L78.6455 124.222ZM76.6613 139.985C74.106 138.067 71.0612 134.605 69.8192 130.123L69.3374 130.256C70.6159 134.87 73.7412 138.418 76.3611 140.385L76.6613 139.985ZM69.4835 146.842C71.3034 145.26 73.7714 143.052 76.6807 140.369L76.3417 140.002C73.4352 142.682 70.971 144.886 69.1554 146.465L69.4835 146.842ZM70.1643 147.244L69.5081 146.49L69.1308 146.818L69.787 147.572L70.1643 147.244ZM77.1882 140.581C74.2028 143.337 71.6709 145.603 69.8116 147.22L70.1397 147.597C72.0035 145.976 74.539 143.707 77.5273 140.949L77.1882 140.581ZM86.7501 146.411C82.5754 145.375 79.3634 142.81 77.5508 140.606L77.1647 140.924C79.0312 143.193 82.3309 145.83 86.6297 146.897L86.7501 146.411ZM102.8 142.23C96.7436 146.872 91.2109 147.518 86.7501 146.411L86.6297 146.897C91.2485 148.043 96.9359 147.355 103.104 142.626L102.8 142.23ZM103.326 141.813C103.154 141.954 102.978 142.093 102.8 142.23L103.104 142.626C103.286 142.486 103.466 142.344 103.643 142.2L103.326 141.813ZM103.59 141.774L103.542 141.763L103.427 142.25L103.476 142.261L103.59 141.774ZM103.305 141.897L103.29 141.961L103.776 142.075L103.791 142.012L103.305 141.897ZM112.666 123.28C111.688 130.126 109.053 137.099 103.389 141.761L103.707 142.147C109.504 137.375 112.173 130.262 113.161 123.35L112.666 123.28ZM111.95 105.221C112.954 109.487 113.659 116.336 112.666 123.28L113.161 123.35C114.163 116.337 113.453 109.425 112.437 105.107L111.95 105.221ZM112.009 104.995L112.004 105.001L112.383 105.328L112.387 105.322L112.009 104.995ZM112.011 104.993L112.009 104.995L112.387 105.322L112.389 105.32L112.011 104.993ZM112.012 104.992L112.012 104.992L112.389 105.321L112.389 105.321L112.012 104.992ZM112.01 104.994L112.01 104.994L112.391 105.319L112.391 105.318L112.01 104.994ZM112.011 104.993L112.011 104.993L112.39 105.319L112.39 105.319L112.011 104.993ZM112.012 104.992L112.012 104.992L112.389 105.32L112.389 105.32L112.012 104.992ZM112.012 104.991L112.012 104.992L112.389 105.32L112.39 105.32L112.012 104.991ZM111.615 104.757C111.764 104.783 111.844 104.873 111.893 104.976C111.919 105.028 111.934 105.081 111.943 105.12C111.947 105.14 111.949 105.155 111.951 105.165C111.951 105.169 111.952 105.173 111.952 105.174C111.952 105.174 111.952 105.174 111.952 105.174C111.952 105.173 111.952 105.172 111.952 105.171C111.951 105.17 111.951 105.169 111.951 105.166C111.951 105.165 111.951 105.162 111.951 105.158C111.951 105.156 111.951 105.148 111.951 105.144C111.952 105.132 111.973 105.052 112.012 104.992L112.39 105.319C112.429 105.259 112.45 105.179 112.451 105.167C112.451 105.163 112.451 105.155 112.451 105.153C112.451 105.149 112.451 105.145 112.451 105.145C112.451 105.142 112.451 105.14 112.451 105.139C112.45 105.137 112.45 105.136 112.45 105.134C112.45 105.131 112.45 105.128 112.449 105.125C112.449 105.118 112.448 105.109 112.446 105.098C112.443 105.077 112.439 105.048 112.431 105.014C112.417 104.947 112.39 104.855 112.343 104.757C112.247 104.56 112.056 104.327 111.703 104.264L111.615 104.757ZM88.0799 104.801C96.7933 102.351 106.499 103.167 111.584 104.749L111.733 104.272C106.561 102.663 96.7571 101.842 87.9445 104.32L88.0799 104.801ZM74.4561 113.37C78.2544 108.842 83.0896 106.204 88.0799 104.801L87.9445 104.32C82.877 105.745 77.9478 108.429 74.073 113.049L74.4561 113.37ZM69.8192 130.123C68.5163 125.42 69.2077 119.628 74.4561 113.37L74.073 113.049C68.7279 119.422 67.9869 125.382 69.3374 130.256L69.8192 130.123ZM102.116 141.493C96.3145 145.912 91.1181 146.465 86.991 145.441L86.8706 145.926C91.1548 146.989 96.5054 146.395 102.419 141.891L102.116 141.493ZM84.8707 133.752C88.1362 136.002 95.6536 140.11 102.201 141.933L102.335 141.451C95.8544 139.647 88.3872 135.568 85.1544 133.34L84.8707 133.752ZM78.2631 140.268C80.379 138.306 82.712 136.107 85.1859 133.726L84.8392 133.366C82.3676 135.744 80.0368 137.942 77.9232 139.901L78.2631 140.268ZM86.991 145.441C83.0311 144.458 79.979 142.003 78.2869 139.927L77.8994 140.243C79.6456 142.385 82.7857 144.912 86.8706 145.926L86.991 145.441Z"
    fill="#E4E353" />
  <circle cx="4.5" cy="86.5" r="4.5" fill="#703FF6" />
  <circle cx="22" cy="136" r="6" fill="#E9C026" />
  <circle cx="153" cy="98" r="5" fill="#F56067" />
  <circle cx="172" cy="81" r="10" fill="#3D84FA" />
  <circle cx="92.5" cy="9.5" r="9.5" fill="#F4665D" />
</svg>
  